<svg width="196" height="197" viewBox="0 0 196 197" fill="none" xmlns="http://www.w3.org/2000/svg">
<path fill-rule="evenodd" clip-rule="evenodd" d="M195.618 98.4329C195.618 152.344 151.911 196.05 98.0675 196.05C44.1564 196.05 0.450195 152.344 0.450195 98.4329C0.450195 44.5889 44.1564 0.88266 98.0675 0.88266C151.911 0.88266 195.618 44.5889 195.618 98.4329ZM163.056 68.0869H125.661V33.377H101.76V136.03H81.9546C67.6544 136.03 60.2693 127.638 60.2693 113.74C60.2693 99.0371 68.1915 91.4506 81.9546 91.4506H97.3961C95.7849 79.3659 91.6895 68.0869 91.6895 68.0869H81.3504C47.7818 68.0869 35.6972 90.645 35.6972 113.74C35.6972 144.892 57.3825 159.393 81.3504 159.393H125.661V91.1821H163.056V68.0869Z" fill="white"/>
</svg>
